<svg class="h-24" width="100" height="100" viewBox="0 0 26.458333 26.458333" version="1.1" id="svg1"
    xml:space="preserve" fill="#b3b3b3" style="background-color:#202122" xmlns="http://www.w3.org/2000/svg">
    <defs id="defs1" />
    <g id="layer1">
        <path
            d="m 12.450009,21.597416 c -0.04584,-0.04584 -0.08334,-0.199015 -0.08334,-0.340393 0,-0.241441 -0.06974,-0.261669 -1.148334,-0.333094 C 10.58675,20.882105 9.80235,20.847611 9.4752222,20.847276 9.1480944,20.846941 8.8168444,20.783067 8.7391111,20.705333 8.6341783,20.600401 8.5977778,19.419174 8.5977778,16.118951 8.5977778,13.28263 8.5551523,11.647558 8.48,11.601111 8.2834762,11.479653 8.3453449,10.814962 8.5683333,10.652095 8.7523599,10.517686 8.7784584,10.209626 8.8119061,7.7770367 L 8.8493678,5.052518 9.1434623,4.9407034 c 0.161752,-0.061498 1.0061447,-0.1118145 1.8764277,-0.1118145 0.976369,0 1.582332,-0.045104 1.582332,-0.1177778 0,-0.064778 0.2915,-0.1177778 0.647778,-0.1177778 0.356278,0 0.647778,0.053 0.647778,0.1177778 0,0.072674 0.605963,0.1177778 1.582332,0.1177778 0.870283,0 1.715497,0.050629 1.878252,0.1125082 l 0.295919,0.1125083 0.03564,2.7238301 c 0.03184,2.4332305 0.05763,2.7398905 0.241748,2.8743645 0.222988,0.162862 0.284857,0.827552 0.08833,0.949011 -0.07515,0.04645 -0.117778,1.681519 -0.117778,4.51784 0,3.300223 -0.0364,4.48145 -0.141333,4.586382 -0.07773,0.07773 -0.408983,0.141608 -0.736111,0.141943 -0.327128,3.35e-4 -1.108761,0.03465 -1.736963,0.07625 -1.120232,0.07418 -1.14287,0.08153 -1.177778,0.382168 -0.03382,0.291226 -0.07406,0.30824 -0.806139,0.340798 -0.423801,0.01885 -0.808051,-0.0032 -0.853889,-0.04908 z m 5.0707,-6.021305 -0.03071,-5.035 H 13.25 9.01 l -0.030709,5.035 -0.030709,5.035 H 13.25 17.551418 Z M 9.54,20.292477 C 9.3780556,20.260331 9.2066171,20.173123 9.1590257,20.098682 9.1114343,20.02424 9.0716843,18.893869 9.0706924,17.586746 9.0691708,15.581601 9.0978154,15.181232 9.2539683,15.025079 9.4145957,14.864452 9.9425349,14.84 13.25,14.84 c 3.307465,0 3.835404,0.02445 3.996032,0.185079 0.156153,0.156153 0.184797,0.556522 0.183276,2.561667 -9.92e-4,1.307123 -0.05201,2.456087 -0.113366,2.553254 -0.0949,0.15028 -0.661937,0.179225 -3.79653,0.193795 -2.026732,0.0094 -3.8174676,-0.0092 -3.979412,-0.04132 z M 17.431111,7.7438889 V 5.1822222 H 13.25 9.0688889 V 7.7438889 10.305556 H 13.25 17.431111 Z M 12.615625,9.5694444 C 12.479088,9.4560833 12.334516,9.1932067 12.294354,8.9852742 c -0.06111,-0.3163994 -0.01463,-0.4364557 0.28503,-0.7361111 0.46092,-0.4609204 0.876003,-0.4652288 1.327454,-0.013779 0.388143,0.3881432 0.41955,0.5818553 0.171962,1.0606362 -0.271031,0.5241172 -0.99768,0.6599061 -1.463175,0.2734241 z m 0.936562,-0.2691438 c 0.307703,-0.1646775 0.287633,-0.608031 -0.04044,-0.8932847 -0.26767,-0.2327368 -0.268816,-0.2327101 -0.53,0.012347 -0.313696,0.2943279 -0.340105,0.7099606 -0.05564,0.8756477 0.263622,0.1535459 0.34773,0.1542565 0.626076,0.00529 z m -1.774409,-0.636683 c 0,-0.1009897 0.053,-0.1836176 0.117778,-0.1836176 0.06478,0 0.117777,0.049872 0.117777,0.1108269 0,0.060955 -0.053,0.1435827 -0.117777,0.1836175 -0.06478,0.040035 -0.117778,-0.00984 -0.117778,-0.1108268 z m 2.777547,0.067745 c -0.05073,-0.082091 -0.06044,-0.1810643 -0.02156,-0.2199397 0.105406,-0.1054065 0.220335,0.04962 0.163403,0.2204144 -0.03989,0.1196829 -0.06764,0.11959 -0.14184,-4.747e-4 z M 10.011111,8.5977778 C 10.011111,8.533 10.090611,8.48 10.187778,8.48 c 0.09717,0 0.176666,0.053 0.176666,0.1177778 0,0.064778 -0.0795,0.1177778 -0.176666,0.1177778 -0.09717,0 -0.176667,-0.053 -0.176667,-0.1177778 z m 6.124445,0 C 16.135556,8.533 16.215056,8.48 16.312222,8.48 c 0.09717,0 0.176667,0.053 0.176667,0.1177778 0,0.064778 -0.0795,0.1177778 -0.176667,0.1177778 -0.09717,0 -0.176666,-0.053 -0.176666,-0.1177778 z M 10.352417,8.2109216 C 9.5938635,7.7008943 9.5451917,6.7303553 10.246305,6.095 11.250178,5.1852814 12.861588,6.2455208 12.439593,7.5380912 12.279389,8.0287983 11.652056,8.48 11.13,8.48 10.922437,8.48 10.572525,8.3589147 10.352417,8.2109216 Z m 1.163599,-0.6209334 c 0.146162,-0.1023757 0.261762,-0.3074798 0.261762,-0.4644326 0,-0.2793566 -0.383326,-0.6477778 -0.673984,-0.6477778 -0.206986,0 -0.621572,0.4320647 -0.621572,0.6477778 0,0.215713 0.414586,0.6477777 0.621572,0.6477777 0.08275,0 0.268253,-0.082505 0.412222,-0.1833451 z m 3.076401,0.6209334 C 13.833864,7.7008943 13.785192,6.7303553 14.486305,6.095 15.490178,5.1852814 17.101588,6.2455208 16.679593,7.5380912 16.519389,8.0287983 15.892056,8.48 15.37,8.48 15.162437,8.48 14.812525,8.3589147 14.592417,8.2109216 Z m 1.189805,-0.6731438 c 0.129556,-0.1295556 0.235556,-0.3150556 0.235556,-0.4122222 0,-0.2157131 -0.414586,-0.6477778 -0.621572,-0.6477778 -0.290658,0 -0.673984,0.3684212 -0.673984,0.6477778 0,0.2793565 0.383326,0.6477777 0.673984,0.6477777 0.08275,0 0.256461,-0.106 0.386016,-0.2355555 z M 13.074935,6.1254343 C 12.861163,5.993316 13.02625,5.6269939 13.277736,5.6754257 c 0.112813,0.021726 0.221575,0.1249741 0.241693,0.2294405 0.04306,0.2235822 -0.224663,0.3564314 -0.444494,0.2205681 z"
            id="path2" />
    </g>
</svg>